{"title":"Happy Valley S01E06 Crime Drama x264 RB58.mp4","uid":10289554,"size":672036463,"categoryP":"video","categoryS":"tv_shows","magnet":"?xt=urn:btih:08a16bf2fd432f04587bff2dd4b421ef415e1eb8&amp;dn=Happy+Valley+S01E06+Crime+Drama+x264+RB58.mp4&amp;tr=udp%3A%2F%2Ftracker.openbittorrent.com%3A80&amp;tr=udp%3A%2F%2Fopen.demonii.com%3A1337&amp;tr=udp%3A%2F%2Ftracker.coppersurfer.tk%3A6969&amp;tr=udp%3A%2F%2Fexodus.desync.com%3A6969","seeders":8,"leechers":2,"uploader":"RedBaron58","files":1,"time":1401843246,"description":"Happy Valley Series 1 Episode 6 BBC Crime Drama x264 mp4\n &lt;a href=&quot;\nhttp://www.imdb.com/title/tt3428912/&quot; rel=&quot;nofollow&quot; target=&quot;_NEW&quot;&gt;\nhttp://www.imdb.com/title/tt3428912/&lt;/a&gt;\n\n\nPlease be patient My intial upload speed is limited, but I am online most the time and during the night.\nThank you for your kind comments and thumbs ups on my other torrents, your feedback is welcome.\n\nDrama writen by Sally Wainwright of Scott &amp; Bailey and Last tango in Halifax fame. \n\nAbout the Episode:\nThings aren't looking good for the kidnappers, with Ashley under witness protection and Kevin awaiting trial. \nClare's plan to cheer Catherine up with a birthday party fails miserably when the family ends up arguing, \nwith Daniel revealing a few home truths. \nWhat none of them realise is that Tommy is back in Hebden Bridge, weakened by his injuries and hiding out \nin an abandoned narrowboat, where he starts plotting to see his son.\n\n\nI hope you enjoy.\n\nTechnical:\n\nGeneral\nComplete name                            : F:Happy Valley S01E06 Crime Drama x264 RB58.mp4\nFormat                                   : MPEG-4\nFormat profile                           : Base Media\nCodec ID                                 : isom\nFile size                                : 641 MiB\nDuration                                 : 58mn 18s\nOverall bit rate                         : 1 537 Kbps\nWriting application                      : Lavf54.63.104\n\nVideo\nID                                       : 1\nFormat                                   : AVC\nFormat/Info                              : Advanced Video Codec\nFormat profile                           : &lt;a class=&quot;__cf_email__&quot; href=&quot;/cdn-cgi/l/email-protection&quot; data-cfemail=&quot;f2ba9b959ab2bec1dcc2&quot;&gt;[email&amp;#160;protected]&lt;/a&gt;&lt;script cf-hash='f9e31' type=&quot;text/javascript&quot;&gt;\n/* &lt;![CDATA[ */!function(){try{var t=&quot;currentScript&quot;in document?document.currentScript:function(){for(var t=document.getElementsByTagName(&quot;script&quot;),e=t.length;e--;)if(t[e].getAttribute(&quot;cf-hash&quot;))return t[e]}();if(t&amp;&amp;t.previousSibling){var e,r,n,i,c=t.previousSibling,a=c.getAttribute(&quot;data-cfemail&quot;);if(a){for(e=&quot;&quot;,r=parseInt(a.substr(0,2),16),n=2;a.length-n;n+=2)i=parseInt(a.substr(n,2),16)^r,e+=String.fromCharCode(i);e=document.createTextNode(e),c.parentNode.replaceChild(e,c)}}}catch(u){}}();/* ]]&gt; */&lt;/script&gt;\nFormat settings, CABAC                   : Yes\nFormat settings, ReFrames                : 4 frames\nCodec ID                                 : avc1\nCodec ID/Info                            : Advanced Video Coding\nDuration                                 : 58mn 18s\nBit rate                                 : 1 400 Kbps\nWidth                                    : 832 pixels\nHeight                                   : 468 pixels\nDisplay aspect ratio                     : 16:9\nFrame rate mode                          : Constant\nFrame rate                               : 25.000 fps\nColor space                              : YUV\nChroma subsampling                       : 4:2:0\nBit depth                                : 8 bits\nScan type                                : Progressive\nBits/(Pixel*Frame)                       : 0.144\nStream size                              : 584 MiB (91%)\nWriting library                          : x264 core 123 r2189 35cf912\nEncoding settings                        : cabac=1 / ref=3 / deblock=1:0:0 \n\nAudio\nID                                       : 2\nFormat                                   : AAC\nFormat/Info                              : Advanced Audio Codec\nFormat profile                           : LC\nCodec ID                                 : 40\nDuration                                 : 58mn 18s\nBit rate mode                            : Constant\nBit rate                                 : 128 Kbps\nChannel(s)                               : 2 channels\nChannel positions                        : Front: L R\nSampling rate                            : 48.0 KHz\nCompression mode                         : Lossy\nStream size                              : 53.4 MiB (8%)","torrent":{"xt":"urn:btih:08a16bf2fd432f04587bff2dd4b421ef415e1eb8","amp;dn":"Happy+Valley+S01E06+Crime+Drama+x264+RB58.mp4","amp;tr":["udp%3A%2F%2Ftracker.openbittorrent.com%3A80","udp%3A%2F%2Fopen.demonii.com%3A1337","udp%3A%2F%2Ftracker.coppersurfer.tk%3A6969","udp%3A%2F%2Fexodus.desync.com%3A6969"],"infoHash":"08a16bf2fd432f04587bff2dd4b421ef415e1eb8","infoHashBuffer":{"type":"Buffer","data":[8,161,107,242,253,67,47,4,88,123,255,45,212,180,33,239,65,94,30,184]},"announce":[],"urlList":[]}}